<svg xmlns="http://www.w3.org/2000/svg" viewBox="0 0 16 16" enable-background="new 0 0 16 16"><path d="M1 5.366v5.294c0 .177.142.32.317.32h2.89c.093 0 .18.034.254.093l4.506 3.743c.16.135.4.018.402-.19l.002-13.25c0-.21-.243-.325-.403-.193L4.47 4.923c-.077.064-.173.098-.27.098H1.33c-.235 0-.33.17-.33.347zm10.292-1.03c-.295-.296-.76-.296-1.057 0-.292.296-.292.775.002 1.07v-.002c.642.652 1.04 1.55 1.04 2.54 0 .992-.396 1.884-1.04 2.535-.294.294-.294.773 0 1.07.143.147.334.22.526.22.19 0 .388-.073.528-.22.91-.92 1.477-2.2 1.477-3.605 0-1.41-.567-2.69-1.476-3.61h.003zm1.71-1.732c-.294-.296-.76-.296-1.053 0-.295.296-.294.772 0 1.066 1.08 1.096 1.753 2.602 1.753 4.273s-.667 3.176-1.753 4.273c-.294.294-.294.77 0 1.067.142.146.337.222.53.222.19 0 .386-.076.526-.222 1.35-1.366 2.19-3.257 2.19-5.34-.008-2.08-.843-3.975-2.194-5.34z"/></svg>