<?xml version="1.0" standalone="no"?>
<!DOCTYPE svg PUBLIC "-//W3C//DTD SVG 20010904//EN"
 "http://www.w3.org/TR/2001/REC-SVG-20010904/DTD/svg10.dtd">
<svg version="1.0" xmlns="http://www.w3.org/2000/svg"
 width="1000.000000pt" height="1000.000000pt" viewBox="0 0 1000.000000 1000.000000"
 preserveAspectRatio="xMidYMid meet">
<metadata>
Created by potrace 1.11, written by Peter Selinger 2001-2013
</metadata>
<g transform="translate(0.000000,1000.000000) scale(0.100000,-0.100000)"
fill="#000000" stroke="none">
<path d="M4887 9374 c-1 -1 -63 -4 -137 -8 -74 -3 -153 -8 -175 -11 -22 -3
-80 -10 -130 -16 -110 -13 -176 -23 -240 -36 -11 -2 -45 -8 -75 -14 -30 -6
-116 -26 -190 -45 -538 -134 -1046 -369 -1495 -693 -90 -65 -265 -204 -340
-270 -77 -68 -361 -356 -415 -421 -30 -36 -57 -67 -60 -70 -3 -3 -30 -36 -60
-75 -182 -230 -346 -486 -471 -736 -72 -143 -129 -266 -129 -275 0 -3 -7 -20
-15 -37 -127 -278 -264 -806 -300 -1162 -3 -33 -8 -71 -10 -85 -22 -129 -22
-687 0 -845 2 -16 6 -55 10 -85 3 -30 10 -82 15 -115 5 -33 11 -76 14 -95 13
-84 50 -255 82 -380 125 -481 323 -922 597 -1329 100 -149 216 -305 284 -380
12 -14 41 -48 65 -77 56 -68 344 -354 428 -424 36 -30 71 -61 79 -68 7 -7 50
-40 95 -74 44 -34 83 -64 86 -67 19 -22 302 -206 415 -271 246 -142 569 -286
815 -364 63 -20 135 -43 160 -51 109 -35 417 -102 555 -121 28 -4 57 -8 65 -9
8 -2 47 -6 85 -10 39 -4 79 -9 90 -11 39 -7 292 -18 430 -18 164 1 354 12 490
29 22 2 63 7 90 11 28 3 61 7 75 10 14 2 41 7 60 9 19 3 46 8 60 11 14 3 36 8
50 10 140 24 409 97 605 164 223 77 557 230 741 339 38 23 75 45 81 49 130 76
364 242 503 356 145 118 343 306 455 430 46 51 156 179 180 210 17 21 35 44
40 50 26 28 129 171 192 266 177 266 316 530 422 800 21 52 42 104 46 115 5
11 9 22 10 25 0 3 22 68 47 145 91 274 152 557 184 850 3 28 7 64 9 80 23 160
23 673 0 830 -2 17 -6 55 -9 85 -4 49 -9 86 -30 220 -33 210 -120 549 -186
725 -10 28 -32 86 -48 130 -158 420 -413 853 -721 1225 -86 103 -381 408 -471
486 -471 407 -1005 708 -1570 885 -116 37 -405 111 -475 123 -16 3 -55 9 -85
15 -93 16 -112 19 -205 31 -110 13 -150 17 -285 25 -99 7 -378 13 -383 9z
m348 -2199 c49 -7 195 -30 246 -40 159 -30 470 -152 608 -239 22 -15 44 -26
47 -26 11 0 204 -139 269 -193 98 -82 261 -254 337 -354 245 -326 399 -719
435 -1112 14 -149 8 -403 -13 -531 -23 -144 -82 -373 -114 -445 -5 -11 -22
-53 -39 -92 -162 -391 -462 -745 -836 -988 -175 -114 -450 -231 -660 -280
-191 -45 -289 -57 -485 -60 -251 -4 -479 31 -715 110 -122 40 -322 125 -355
150 -8 6 -42 27 -75 45 -233 128 -489 364 -672 620 -52 72 -193 311 -193 326
0 3 -9 24 -19 48 -87 190 -144 400 -177 651 -12 93 -11 365 2 473 51 422 215
817 471 1136 65 80 214 232 293 298 259 218 575 377 895 453 93 22 120 27 216
41 143 21 417 25 534 9z"/>
</g>
</svg>
